<svg xmlns="http://www.w3.org/2000/svg" width="91" height="59" viewBox="0 0 91 59" fill="none">
  <path d="M20.2756 58.58C16.329 58.58 12.5156 58.02 8.83564 56.9C5.20898 55.78 2.27564 54.2334 0.0356445 52.26L3.95564 42.98C6.35564 44.74 8.88898 46.0734 11.5556 46.98C14.2223 47.8334 16.969 48.26 19.7956 48.26C23.1023 48.26 25.5823 47.6467 27.2356 46.42C28.889 45.1934 29.7156 43.38 29.7156 40.98C29.7156 38.74 28.9156 37.06 27.3156 35.94C25.769 34.7667 23.449 34.18 20.3556 34.18H10.9156V24.34H19.2356C21.9023 24.34 24.0356 23.7267 25.6356 22.5C27.2356 21.22 28.0356 19.4867 28.0356 17.3C28.0356 15.1667 27.289 13.54 25.7956 12.42C24.3023 11.3 22.1423 10.74 19.3156 10.74C13.929 10.74 9.12898 12.5267 4.91564 16.1L0.915645 6.98005C3.31564 4.90004 6.22231 3.30004 9.63564 2.18005C13.1023 1.00671 16.729 0.420044 20.5156 0.420044C26.5956 0.420044 31.3423 1.78004 34.7556 4.50004C38.2223 7.16671 39.9556 10.9 39.9556 15.7C39.9556 19.0067 39.0223 21.86 37.1556 24.26C35.289 26.6067 32.729 28.18 29.4756 28.98V27.94C33.3156 28.58 36.3023 30.1534 38.4356 32.66C40.569 35.1667 41.6356 38.3134 41.6356 42.1C41.6356 47.22 39.7156 51.2467 35.8756 54.18C32.089 57.1134 26.889 58.58 20.2756 58.58Z" fill="#DD2590"/>
  <path d="M69.4444 58.58C66.9377 58.58 64.4577 58.3134 62.0044 57.78C59.5511 57.2467 57.2577 56.5267 55.1244 55.62C52.9911 54.66 51.2044 53.54 49.7644 52.26L53.6844 42.98C56.0844 44.6867 58.5911 45.9934 61.2044 46.9C63.8177 47.8067 66.4844 48.26 69.2044 48.26C72.2977 48.26 74.6977 47.54 76.4044 46.1C78.1644 44.6067 79.0444 42.58 79.0444 40.02C79.0444 37.46 78.2177 35.4067 76.5644 33.86C74.9111 32.3134 72.6444 31.54 69.7644 31.54C67.7377 31.54 65.8444 31.9134 64.0844 32.66C62.3777 33.4067 60.8311 34.5534 59.4444 36.1H51.4444V1.30004H87.4444V11.46H63.2044V26.74H60.3244C61.6577 25.0867 63.4177 23.8067 65.6044 22.9C67.7911 21.9934 70.2444 21.54 72.9644 21.54C76.5911 21.54 79.7377 22.3134 82.4044 23.86C85.1244 25.3534 87.2311 27.46 88.7244 30.18C90.2177 32.8467 90.9644 35.9934 90.9644 39.62C90.9644 43.3534 90.0844 46.66 88.3244 49.54C86.6177 52.3667 84.1377 54.58 80.8844 56.18C77.6844 57.78 73.8711 58.58 69.4444 58.58Z" fill="#DD2590"/>
</svg>